<?xml version="1.0" encoding="UTF-8" standalone="no"?>
<!-- Created with Inkscape (http://www.inkscape.org/) -->

<svg
   xmlns:dc="http://purl.org/dc/elements/1.1/"
   xmlns:cc="http://creativecommons.org/ns#"
   xmlns:rdf="http://www.w3.org/1999/02/22-rdf-syntax-ns#"
   xmlns:svg="http://www.w3.org/2000/svg"
   xmlns="http://www.w3.org/2000/svg"
   xmlns:sodipodi="http://sodipodi.sourceforge.net/DTD/sodipodi-0.dtd"
   xmlns:inkscape="http://www.inkscape.org/namespaces/inkscape"
   width="499.99997mm"
   height="40.000011mm"
   viewBox="0 0 499.99997 40.00001"
   version="1.1"
   id="svg8"
   inkscape:version="0.92.3 (2405546, 2018-03-11)"
   sodipodi:docname="bar.svg">
  <defs
     id="defs2" />
  <sodipodi:namedview
     id="base"
     pagecolor="#ffffff"
     bordercolor="#666666"
     borderopacity="1.0"
     inkscape:pageopacity="0.0"
     inkscape:pageshadow="2"
     inkscape:zoom="0.49497475"
     inkscape:cx="1005.4918"
     inkscape:cy="-88.020031"
     inkscape:document-units="mm"
     inkscape:current-layer="layer1"
     showgrid="false"
     showguides="true"
     inkscape:guide-bbox="true"
     inkscape:snap-bbox="true"
     inkscape:bbox-nodes="true"
     inkscape:snap-bbox-edge-midpoints="true"
     inkscape:snap-bbox-midpoints="true"
     fit-margin-top="0"
     fit-margin-left="0"
     fit-margin-right="0"
     fit-margin-bottom="0"
     inkscape:window-width="1920"
     inkscape:window-height="1025"
     inkscape:window-x="0"
     inkscape:window-y="27"
     inkscape:window-maximized="1" />
  <metadata
     id="metadata5">
    <rdf:RDF>
      <cc:Work
         rdf:about="">
        <dc:format>image/svg+xml</dc:format>
        <dc:type
           rdf:resource="http://purl.org/dc/dcmitype/StillImage" />
        <dc:title></dc:title>
      </cc:Work>
    </rdf:RDF>
  </metadata>
  <g
     inkscape:label="Layer 1"
     inkscape:groupmode="layer"
     id="layer1"
     style="photonsaw-speed:12"
     transform="translate(79.739414,-159.21127)">
    <path
       style="fill:none;fill-opacity:1;stroke:#000000;stroke-width:0.19000991;stroke-miterlimit:4;stroke-dasharray:none;stroke-dashoffset:0;stroke-opacity:1"
       d="M -79.281223,111.68127 H 419.80237 c 0.20121,0 0.36319,0.16198 0.36319,0.36318 v 39.08362 c 0,0.20121 -0.16198,0.36319 -0.36319,0.36319 H -79.281223 c -0.201205,0 -0.363186,-0.16198 -0.363186,-0.36319 v -39.08362 c 0,-0.2012 0.161981,-0.36318 0.363186,-0.36318 z"
       id="rect815"
       inkscape:connector-curvature="0" />
    <g
       id="g1344">
      <path
         style="fill:none;fill-opacity:1;stroke:#000000;stroke-width:0.07368788;stroke-miterlimit:4;stroke-dasharray:none;stroke-dashoffset:0;stroke-opacity:1"
         d="m -71.705412,131.58626 a 1.5631561,1.563156 0 0 1 -1.56316,1.56315 1.5631561,1.563156 0 0 1 -1.56315,-1.56315 1.5631561,1.563156 0 0 1 1.56315,-1.56316 1.5631561,1.563156 0 0 1 1.56316,1.56316 z"
         id="path928-0"
         inkscape:connector-curvature="0" />
      <path
         style="fill:none;fill-opacity:1;stroke:#000000;stroke-width:0.07368788;stroke-miterlimit:4;stroke-dasharray:none;stroke-dashoffset:0;stroke-opacity:1"
         d="m -34.705421,131.58626 a 1.5631561,1.563156 0 0 1 -1.563157,1.56315 1.5631561,1.563156 0 0 1 -1.563156,-1.56315 1.5631561,1.563156 0 0 1 1.563156,-1.56316 1.5631561,1.563156 0 0 1 1.563157,1.56316 z"
         id="path928-6"
         inkscape:connector-curvature="0" />
    </g>
    <g
       id="g1348">
      <path
         style="fill:none;fill-opacity:1;stroke:#000000;stroke-width:0.07368788;stroke-miterlimit:4;stroke-dasharray:none;stroke-dashoffset:0;stroke-opacity:1"
         d="m -7.41137,131.58626 a 1.5631561,1.563156 0 0 1 -1.56316,1.56315 1.5631561,1.563156 0 0 1 -1.56315,-1.56315 1.5631561,1.563156 0 0 1 1.56315,-1.56316 1.5631561,1.563156 0 0 1 1.56316,1.56316 z"
         id="path928-0-6"
         inkscape:connector-curvature="0" />
      <path
         style="fill:none;fill-opacity:1;stroke:#000000;stroke-width:0.07368788;stroke-miterlimit:4;stroke-dasharray:none;stroke-dashoffset:0;stroke-opacity:1"
         d="m 29.588621,131.58626 a 1.5631561,1.563156 0 0 1 -1.563157,1.56315 1.5631561,1.563156 0 0 1 -1.563156,-1.56315 1.5631561,1.563156 0 0 1 1.563156,-1.56316 1.5631561,1.563156 0 0 1 1.563157,1.56316 z"
         id="path928-6-1"
         inkscape:connector-curvature="0" />
    </g>
    <g
       id="g1352">
      <path
         style="fill:none;fill-opacity:1;stroke:#000000;stroke-width:0.07368788;stroke-miterlimit:4;stroke-dasharray:none;stroke-dashoffset:0;stroke-opacity:1"
         d="m 56.88267,131.58626 a 1.5631561,1.563156 0 0 1 -1.56316,1.56315 1.5631561,1.563156 0 0 1 -1.56315,-1.56315 1.5631561,1.563156 0 0 1 1.56315,-1.56316 1.5631561,1.563156 0 0 1 1.56316,1.56316 z"
         id="path928-0-7"
         inkscape:connector-curvature="0" />
      <path
         style="fill:none;fill-opacity:1;stroke:#000000;stroke-width:0.07368788;stroke-miterlimit:4;stroke-dasharray:none;stroke-dashoffset:0;stroke-opacity:1"
         d="m 93.882661,131.58626 a 1.5631561,1.563156 0 0 1 -1.563157,1.56315 1.5631561,1.563156 0 0 1 -1.563156,-1.56315 1.5631561,1.563156 0 0 1 1.563156,-1.56316 1.5631561,1.563156 0 0 1 1.563157,1.56316 z"
         id="path928-6-9"
         inkscape:connector-curvature="0" />
    </g>
    <g
       id="g1356">
      <path
         style="fill:none;fill-opacity:1;stroke:#000000;stroke-width:0.07368788;stroke-miterlimit:4;stroke-dasharray:none;stroke-dashoffset:0;stroke-opacity:1"
         d="m 121.17674,131.58626 a 1.5631561,1.563156 0 0 1 -1.56316,1.56315 1.5631561,1.563156 0 0 1 -1.56315,-1.56315 1.5631561,1.563156 0 0 1 1.56315,-1.56316 1.5631561,1.563156 0 0 1 1.56316,1.56316 z"
         id="path928-0-2"
         inkscape:connector-curvature="0" />
      <path
         style="fill:none;fill-opacity:1;stroke:#000000;stroke-width:0.07368788;stroke-miterlimit:4;stroke-dasharray:none;stroke-dashoffset:0;stroke-opacity:1"
         d="m 158.17673,131.58626 a 1.5631561,1.563156 0 0 1 -1.56316,1.56315 1.5631561,1.563156 0 0 1 -1.56315,-1.56315 1.5631561,1.563156 0 0 1 1.56315,-1.56316 1.5631561,1.563156 0 0 1 1.56316,1.56316 z"
         id="path928-6-3"
         inkscape:connector-curvature="0" />
    </g>
    <g
       id="g1360">
      <path
         style="fill:none;fill-opacity:1;stroke:#000000;stroke-width:0.07368788;stroke-miterlimit:4;stroke-dasharray:none;stroke-dashoffset:0;stroke-opacity:1"
         d="m 185.47076,131.58626 a 1.5631561,1.563156 0 0 1 -1.56316,1.56315 1.5631561,1.563156 0 0 1 -1.56315,-1.56315 1.5631561,1.563156 0 0 1 1.56315,-1.56316 1.5631561,1.563156 0 0 1 1.56316,1.56316 z"
         id="path928-0-5"
         inkscape:connector-curvature="0" />
      <path
         style="fill:none;fill-opacity:1;stroke:#000000;stroke-width:0.07368788;stroke-miterlimit:4;stroke-dasharray:none;stroke-dashoffset:0;stroke-opacity:1"
         d="m 222.47075,131.58626 a 1.5631561,1.563156 0 0 1 -1.56316,1.56315 1.5631561,1.563156 0 0 1 -1.56315,-1.56315 1.5631561,1.563156 0 0 1 1.56315,-1.56316 1.5631561,1.563156 0 0 1 1.56316,1.56316 z"
         id="path928-6-92"
         inkscape:connector-curvature="0" />
    </g>
    <g
       id="g1364">
      <path
         style="fill:none;fill-opacity:1;stroke:#000000;stroke-width:0.07368788;stroke-miterlimit:4;stroke-dasharray:none;stroke-dashoffset:0;stroke-opacity:1"
         d="m 249.76481,131.58626 a 1.5631561,1.563156 0 0 1 -1.56316,1.56315 1.5631561,1.563156 0 0 1 -1.56315,-1.56315 1.5631561,1.563156 0 0 1 1.56315,-1.56316 1.5631561,1.563156 0 0 1 1.56316,1.56316 z"
         id="path928-0-9"
         inkscape:connector-curvature="0" />
      <path
         style="fill:none;fill-opacity:1;stroke:#000000;stroke-width:0.07368788;stroke-miterlimit:4;stroke-dasharray:none;stroke-dashoffset:0;stroke-opacity:1"
         d="m 286.7648,131.58626 a 1.5631561,1.563156 0 0 1 -1.56316,1.56315 1.5631561,1.563156 0 0 1 -1.56315,-1.56315 1.5631561,1.563156 0 0 1 1.56315,-1.56316 1.5631561,1.563156 0 0 1 1.56316,1.56316 z"
         id="path928-6-7"
         inkscape:connector-curvature="0" />
    </g>
    <g
       id="g1368">
      <path
         style="fill:none;fill-opacity:1;stroke:#000000;stroke-width:0.07368788;stroke-miterlimit:4;stroke-dasharray:none;stroke-dashoffset:0;stroke-opacity:1"
         d="m 314.05886,131.58626 a 1.5631561,1.563156 0 0 1 -1.56316,1.56315 1.5631561,1.563156 0 0 1 -1.56315,-1.56315 1.5631561,1.563156 0 0 1 1.56315,-1.56316 1.5631561,1.563156 0 0 1 1.56316,1.56316 z"
         id="path928-0-61"
         inkscape:connector-curvature="0" />
      <path
         style="fill:none;fill-opacity:1;stroke:#000000;stroke-width:0.07368788;stroke-miterlimit:4;stroke-dasharray:none;stroke-dashoffset:0;stroke-opacity:1"
         d="m 351.05885,131.58626 a 1.5631561,1.563156 0 0 1 -1.56316,1.56315 1.5631561,1.563156 0 0 1 -1.56315,-1.56315 1.5631561,1.563156 0 0 1 1.56315,-1.56316 1.5631561,1.563156 0 0 1 1.56316,1.56316 z"
         id="path928-6-2"
         inkscape:connector-curvature="0" />
    </g>
    <g
       id="g1372">
      <path
         style="fill:none;fill-opacity:1;stroke:#000000;stroke-width:0.07368788;stroke-miterlimit:4;stroke-dasharray:none;stroke-dashoffset:0;stroke-opacity:1"
         d="m 378.3529,131.58626 a 1.5631561,1.563156 0 0 1 -1.56316,1.56315 1.5631561,1.563156 0 0 1 -1.56315,-1.56315 1.5631561,1.563156 0 0 1 1.56315,-1.56316 1.5631561,1.563156 0 0 1 1.56316,1.56316 z"
         id="path928-0-3"
         inkscape:connector-curvature="0" />
      <path
         style="fill:none;fill-opacity:1;stroke:#000000;stroke-width:0.07368788;stroke-miterlimit:4;stroke-dasharray:none;stroke-dashoffset:0;stroke-opacity:1"
         d="m 415.35289,131.58626 a 1.5631561,1.563156 0 0 1 -1.56316,1.56315 1.5631561,1.563156 0 0 1 -1.56315,-1.56315 1.5631561,1.563156 0 0 1 1.56315,-1.56316 1.5631561,1.563156 0 0 1 1.56316,1.56316 z"
         id="path928-6-19"
         inkscape:connector-curvature="0" />
    </g>
    <g
       id="g5177"
       transform="translate(-3e-6,-10.007607)">
      <path
         id="rect815-7"
         d="M -79.281216,169.31388 H 419.8024 c 0.20119,0 0.36316,0.16198 0.36316,0.36318 v 39.08362 c 0,0.20121 -0.16197,0.3632 -0.36316,0.3632 H -79.281216 c -0.20121,0 -0.36319,-0.16199 -0.36319,-0.3632 v -39.08362 c 0,-0.2012 0.16198,-0.36318 0.36319,-0.36318 z"
         style="fill:none;fill-opacity:1;stroke:#000000;stroke-width:0.19000991;stroke-miterlimit:4;stroke-dasharray:none;stroke-dashoffset:0;stroke-opacity:1"
         inkscape:connector-curvature="0" />
      <path
         style="fill:none;fill-opacity:1;stroke:#000000;stroke-width:0.11513739;stroke-miterlimit:4;stroke-dasharray:none;stroke-dashoffset:0;stroke-opacity:1"
         d="m -70.826145,189.21888 a 2.442433,2.4424329 0 0 1 -2.442439,2.44243 2.442433,2.4424329 0 0 1 -2.442423,-2.44243 2.442433,2.4424329 0 0 1 2.442423,-2.44244 2.442433,2.4424329 0 0 1 2.442439,2.44244 z"
         id="path928-0-8"
         inkscape:connector-curvature="0" />
      <path
         style="fill:none;fill-opacity:1;stroke:#000000;stroke-width:0.11513725;stroke-miterlimit:4;stroke-dasharray:none;stroke-dashoffset:0;stroke-opacity:1"
         d="m -33.826159,189.21888 a 2.44243,2.4424298 0 0 1 -2.442434,2.44242 2.44243,2.4424298 0 0 1 -2.442428,-2.44242 2.44243,2.4424298 0 0 1 2.442428,-2.44243 2.44243,2.4424298 0 0 1 2.442434,2.44243 z"
         id="path928-6-4"
         inkscape:connector-curvature="0" />
      <path
         style="fill:none;fill-opacity:1;stroke:#000000;stroke-width:0.11513735;stroke-miterlimit:4;stroke-dasharray:none;stroke-dashoffset:0;stroke-opacity:1"
         d="m -6.5321071,189.21888 a 2.4424321,2.442432 0 0 1 -2.4424397,2.44242 2.4424321,2.442432 0 0 1 -2.4424232,-2.44242 2.4424321,2.442432 0 0 1 2.4424232,-2.44244 2.4424321,2.442432 0 0 1 2.4424397,2.44244 z"
         id="path928-0-6-5"
         inkscape:connector-curvature="0" />
      <path
         style="fill:none;fill-opacity:1;stroke:#000000;stroke-width:0.11513725;stroke-miterlimit:4;stroke-dasharray:none;stroke-dashoffset:0;stroke-opacity:1"
         d="m 30.467883,189.21888 a 2.44243,2.4424298 0 0 1 -2.442433,2.44242 2.44243,2.4424298 0 0 1 -2.442429,-2.44242 2.44243,2.4424298 0 0 1 2.442429,-2.44243 2.44243,2.4424298 0 0 1 2.442433,2.44243 z"
         id="path928-6-1-0"
         inkscape:connector-curvature="0" />
      <path
         style="fill:none;fill-opacity:1;stroke:#000000;stroke-width:0.11513735;stroke-miterlimit:4;stroke-dasharray:none;stroke-dashoffset:0;stroke-opacity:1"
         d="m 57.761934,189.21888 a 2.4424323,2.4424321 0 0 1 -2.44244,2.44242 2.4424323,2.4424321 0 0 1 -2.442423,-2.44242 2.4424323,2.4424321 0 0 1 2.442423,-2.44244 2.4424323,2.4424321 0 0 1 2.44244,2.44244 z"
         id="path928-0-7-3"
         inkscape:connector-curvature="0" />
      <path
         style="fill:none;fill-opacity:1;stroke:#000000;stroke-width:0.11513728;stroke-miterlimit:4;stroke-dasharray:none;stroke-dashoffset:0;stroke-opacity:1"
         d="m 94.761924,189.21888 a 2.4424307,2.4424306 0 0 1 -2.442432,2.44242 2.4424307,2.4424306 0 0 1 -2.442431,-2.44242 2.4424307,2.4424306 0 0 1 2.442431,-2.44243 2.4424307,2.4424306 0 0 1 2.442432,2.44243 z"
         id="path928-6-9-6"
         inkscape:connector-curvature="0" />
      <path
         style="fill:none;fill-opacity:1;stroke:#000000;stroke-width:0.11513739;stroke-miterlimit:4;stroke-dasharray:none;stroke-dashoffset:0;stroke-opacity:1"
         d="m 122.056,189.21888 a 2.442433,2.4424329 0 0 1 -2.44244,2.44243 2.442433,2.4424329 0 0 1 -2.44243,-2.44243 2.442433,2.4424329 0 0 1 2.44243,-2.44244 2.442433,2.4424329 0 0 1 2.44244,2.44244 z"
         id="path928-0-2-1"
         inkscape:connector-curvature="0" />
      <path
         style="fill:none;fill-opacity:1;stroke:#000000;stroke-width:0.11513739;stroke-miterlimit:4;stroke-dasharray:none;stroke-dashoffset:0;stroke-opacity:1"
         d="m 159.056,189.21888 a 2.442433,2.4424329 0 0 1 -2.44244,2.44243 2.442433,2.4424329 0 0 1 -2.44243,-2.44243 2.442433,2.4424329 0 0 1 2.44243,-2.44244 2.442433,2.4424329 0 0 1 2.44244,2.44244 z"
         id="path928-6-3-0"
         inkscape:connector-curvature="0" />
      <path
         style="fill:none;fill-opacity:1;stroke:#000000;stroke-width:0.11513703;stroke-miterlimit:4;stroke-dasharray:none;stroke-dashoffset:0;stroke-opacity:1"
         d="m 186.35003,189.21888 a 2.4424254,2.4424252 0 0 1 -2.44245,2.44242 2.4424254,2.4424252 0 0 1 -2.44241,-2.44242 2.4424254,2.4424252 0 0 1 2.44241,-2.44243 2.4424254,2.4424252 0 0 1 2.44245,2.44243 z"
         id="path928-0-5-6"
         inkscape:connector-curvature="0" />
      <path
         style="fill:none;fill-opacity:1;stroke:#000000;stroke-width:0.11513739;stroke-miterlimit:4;stroke-dasharray:none;stroke-dashoffset:0;stroke-opacity:1"
         d="m 223.35003,189.21888 a 2.442433,2.4424329 0 0 1 -2.44247,2.44243 2.442433,2.4424329 0 0 1 -2.4424,-2.44243 2.442433,2.4424329 0 0 1 2.4424,-2.44244 2.442433,2.4424329 0 0 1 2.44247,2.44244 z"
         id="path928-6-92-3"
         inkscape:connector-curvature="0" />
      <path
         style="fill:none;fill-opacity:1;stroke:#000000;stroke-width:0.11513703;stroke-miterlimit:4;stroke-dasharray:none;stroke-dashoffset:0;stroke-opacity:1"
         d="m 250.64407,189.21888 a 2.4424254,2.4424252 0 0 1 -2.44243,2.44242 2.4424254,2.4424252 0 0 1 -2.44243,-2.44242 2.4424254,2.4424252 0 0 1 2.44243,-2.44243 2.4424254,2.4424252 0 0 1 2.44243,2.44243 z"
         id="path928-0-9-2"
         inkscape:connector-curvature="0" />
      <path
         style="fill:none;fill-opacity:1;stroke:#000000;stroke-width:0.11513703;stroke-miterlimit:4;stroke-dasharray:none;stroke-dashoffset:0;stroke-opacity:1"
         d="m 287.64407,189.21888 a 2.4424254,2.4424252 0 0 1 -2.44243,2.44242 2.4424254,2.4424252 0 0 1 -2.44243,-2.44242 2.4424254,2.4424252 0 0 1 2.44243,-2.44243 2.4424254,2.4424252 0 0 1 2.44243,2.44243 z"
         id="path928-6-7-0"
         inkscape:connector-curvature="0" />
      <path
         style="fill:none;fill-opacity:1;stroke:#000000;stroke-width:0.11513811;stroke-miterlimit:4;stroke-dasharray:none;stroke-dashoffset:0;stroke-opacity:1"
         d="m 314.93813,189.21888 a 2.4424483,2.4424481 0 0 1 -2.44246,2.44244 2.4424483,2.4424481 0 0 1 -2.44241,-2.44244 2.4424483,2.4424481 0 0 1 2.44241,-2.44245 2.4424483,2.4424481 0 0 1 2.44246,2.44245 z"
         id="path928-0-61-6"
         inkscape:connector-curvature="0" />
      <path
         style="fill:none;fill-opacity:1;stroke:#000000;stroke-width:0.11513811;stroke-miterlimit:4;stroke-dasharray:none;stroke-dashoffset:0;stroke-opacity:1"
         d="m 351.93813,189.21888 a 2.4424483,2.4424481 0 0 1 -2.44246,2.44244 2.4424483,2.4424481 0 0 1 -2.44241,-2.44244 2.4424483,2.4424481 0 0 1 2.44241,-2.44245 2.4424483,2.4424481 0 0 1 2.44246,2.44245 z"
         id="path928-6-2-1"
         inkscape:connector-curvature="0" />
      <path
         style="fill:none;fill-opacity:1;stroke:#000000;stroke-width:0.11513811;stroke-miterlimit:4;stroke-dasharray:none;stroke-dashoffset:0;stroke-opacity:1"
         d="m 379.23217,189.21888 a 2.4424483,2.4424481 0 0 1 -2.44246,2.44244 2.4424483,2.4424481 0 0 1 -2.44241,-2.44244 2.4424483,2.4424481 0 0 1 2.44241,-2.44245 2.4424483,2.4424481 0 0 1 2.44246,2.44245 z"
         id="path928-0-3-5"
         inkscape:connector-curvature="0" />
      <path
         style="fill:none;fill-opacity:1;stroke:#000000;stroke-width:0.11513811;stroke-miterlimit:4;stroke-dasharray:none;stroke-dashoffset:0;stroke-opacity:1"
         d="m 416.23217,189.21888 a 2.4424483,2.4424481 0 0 1 -2.44246,2.44244 2.4424483,2.4424481 0 0 1 -2.44241,-2.44244 2.4424483,2.4424481 0 0 1 2.44241,-2.44245 2.4424483,2.4424481 0 0 1 2.44246,2.44245 z"
         id="path928-6-19-5"
         inkscape:connector-curvature="0" />
    </g>
  </g>
</svg>
