<?xml version="1.0" encoding="UTF-8" standalone="no"?>
<!-- Created with Inkscape (http://www.inkscape.org/) -->

<svg
   xmlns:dc="http://purl.org/dc/elements/1.1/"
   xmlns:cc="http://creativecommons.org/ns#"
   xmlns:rdf="http://www.w3.org/1999/02/22-rdf-syntax-ns#"
   xmlns:svg="http://www.w3.org/2000/svg"
   xmlns="http://www.w3.org/2000/svg"
   xmlns:sodipodi="http://sodipodi.sourceforge.net/DTD/sodipodi-0.dtd"
   xmlns:inkscape="http://www.inkscape.org/namespaces/inkscape"
   width="554.27515mm"
   height="44.274899mm"
   viewBox="0 0 554.27515 44.274899"
   version="1.1"
   id="svg889"
   inkscape:version="0.92.3 (2405546, 2018-03-11)"
   sodipodi:docname="front.svg">
  <defs
     id="defs883" />
  <sodipodi:namedview
     id="base"
     pagecolor="#ffffff"
     bordercolor="#666666"
     borderopacity="1.0"
     inkscape:pageopacity="0.0"
     inkscape:pageshadow="2"
     inkscape:zoom="0.49497475"
     inkscape:cx="1491.1262"
     inkscape:cy="-212.03221"
     inkscape:document-units="mm"
     inkscape:current-layer="layer1"
     showgrid="false"
     fit-margin-top="0"
     fit-margin-left="0"
     fit-margin-right="0"
     fit-margin-bottom="0"
     inkscape:window-width="1920"
     inkscape:window-height="1025"
     inkscape:window-x="0"
     inkscape:window-y="27"
     inkscape:window-maximized="1" />
  <metadata
     id="metadata886">
    <rdf:RDF>
      <cc:Work
         rdf:about="">
        <dc:format>image/svg+xml</dc:format>
        <dc:type
           rdf:resource="http://purl.org/dc/dcmitype/StillImage" />
        <dc:title></dc:title>
      </cc:Work>
    </rdf:RDF>
  </metadata>
  <g
     inkscape:label="Layer 1"
     inkscape:groupmode="layer"
     id="layer1"
     style="photonsaw-speed:20"
     transform="translate(239.33995,-131.2316)">
    <g
       id="g1728">
      <path
         inkscape:connector-curvature="0"
         id="path5600"
         style="fill:none;stroke:#000000;stroke-width:0.26499999;stroke-linecap:butt;stroke-linejoin:miter;stroke-miterlimit:10;stroke-dasharray:none;stroke-opacity:1"
         d="m -237.2072,133.364 h 2.98591 v -1.9999 h 5.00098 v 1.9999 h 4.98122 v -1.9999 h 5.00098 v 1.9999 h 4.98122 v -1.9999 h 5.00098 v 1.9999 h 4.98122 v -1.9999 h 5.00098 v 1.9999 h 4.98122 v -1.9999 h 5.00098 v 1.9999 h 4.98087 v -1.9999 h 5.00133 v 1.9999 h 4.98087 v -1.9999 h 5.00133 v 1.9999 h 4.98086 v -1.9999 h 5.00134 v 1.9999 h 4.98086 v -1.9999 h 5.00098 v 1.9999 h 4.98122 v -1.9999 h 5.00098 v 1.9999 h 4.98122 v -1.9999 h 5.00098 v 1.9999 h 4.98122 v -1.9999 h 5.00098 v 1.9999 h 4.98122 v -1.9999 h 5.00098 v 1.9999 h 4.98122 v -1.9999 h 5.00098 v 1.9999 h 4.98087 v -1.9999 h 5.00133 v 1.9999 h 4.98087 v -1.9999 h 5.00133 v 1.9999 h 4.98087 v -1.9999 h 5.00133 v 1.9999 h 4.98087 v -1.9999 h 5.00098 v 1.9999 h 4.98122 v -1.9999 h 5.00098 v 1.9999 h 4.98122 v -1.9999 h 5.00098 v 1.9999 h 4.98122 v -1.9999 h 5.00098 v 1.9999 h 4.98123 v -1.9999 h 5.00098 v 1.9999 h 4.98122 v -1.9999 h 5.00098 v 1.9999 h 4.98123 v -1.9999 H 0.3696 v 1.9999 h 4.98087 v -1.9999 h 5.00123 v 1.9999 h 4.98108 v -1.9999 h 5.00108 v 1.9999 h 4.9811 v -1.9999 h 5.00108 v 1.9999 h 4.98108 v -1.9999 h 5.00108 v 1.9999 h 4.98108 v -1.9999 h 5.0011 v 1.9999 h 4.98108 v -1.9999 h 5.00108 v 1.9999 h 4.98109 v -1.9999 h 5.00109 v 1.9999 h 4.98108 v -1.9999 h 5.00109 v 1.9999 h 4.98108 v -1.9999 h 5.00105 v 1.9999 h 4.98109 v -1.9999 h 5.00109 v 1.9999 h 4.98108 v -1.9999 h 5.00109 v 1.9999 h 4.98108 v -1.9999 h 5.00108 v 1.9999 h 4.98109 v -1.9999 h 5.00108 v 1.9999 h 4.98109 v -1.9999 h 5.00108 v 1.9999 h 4.98108 v -1.9999 h 5.0011 v 1.9999 h 4.98108 v -1.9999 h 5.00108 v 1.9999 h 4.98109 v -1.9999 h 5.00109 v 1.9999 h 4.98108 v -1.9999 h 5.00108 v 1.9999 h 4.98108 v -1.9999 h 5.00109 v 1.9999 h 4.98108 v -1.9999 h 5.00108 v 1.9999 h 4.98108 v -1.9999 h 5.00108 v 1.9999 h 4.98109 v -1.9999 h 5.0011 v 1.9999 h 4.9811 v -1.9999 h 5.001 v 1.9999 h 4.9811 v -1.9999 h 5.0011 v 1.9999 h 4.9811 v -1.9999 h 5.00099 v 1.9999 h 4.9811 v -1.9999 h 5.0011 v 1.9999 h 4.98109 v -1.9999 h 5.0011 v 1.9999 h 4.981 v -1.9999 h 5.0011 v 1.9999 h 4.98109 v -1.9999 h 5.0011 v 1.9999 h 4.9811 v -1.9999 h 5.00109 v 1.9999 h 4.981 v -1.9999 h 5.0011 v 1.9999 h 2.9861 v 2.885 h 1.99999 v 4.9001 h -1.99999 v 4.88 h 1.99999 v 4.8998 h -1.99999 v 4.8803 h 1.99999 v 4.8998 h -1.99999 v 4.88 h 1.99999 v 4.9001 h -1.99999 v 2.885 h -2.9861 v 1.9999 h -5.0011 v -1.9999 h -4.981 v 1.9999 h -5.00109 v -1.9999 h -4.9811 v 1.9999 h -5.0011 v -1.9999 h -4.98109 v 1.9999 h -5.0011 v -1.9999 h -4.981 v 1.9999 h -5.0011 v -1.9999 h -4.98109 v 1.9999 h -5.0011 v -1.9999 h -4.9811 v 1.9999 h -5.00099 v -1.9999 h -4.9811 v 1.9999 h -5.0011 v -1.9999 h -4.9811 v 1.9999 h -5.001 v -1.9999 h -4.9811 v 1.9999 h -5.0011 v -1.9999 h -4.98109 v 1.9999 h -5.00108 v -1.9999 h -4.98108 v 1.9999 h -5.00108 v -1.9999 h -4.98108 v 1.9999 h -5.00109 v -1.9999 h -4.98108 v 1.9999 h -5.00108 v -1.9999 h -4.98108 v 1.9999 h -5.00109 v -1.9999 h -4.98109 v 1.9999 h -5.00108 v -1.9999 h -4.98108 v 1.9999 h -5.0011 v -1.9999 h -4.98108 v 1.9999 h -5.00108 v -1.9999 h -4.98109 v 1.9999 h -5.00108 v -1.9999 h -4.98109 v 1.9999 h -5.00108 v -1.9999 h -4.98108 v 1.9999 h -5.00109 v -1.9999 h -4.98108 v 1.9999 h -5.00109 v -1.9999 h -4.98109 v 1.9999 h -5.00105 v -1.9999 h -4.98108 v 1.9999 H 75.2258 v -1.9999 h -4.98108 v 1.9999 h -5.00109 v -1.9999 h -4.98109 v 1.9999 h -5.00108 v -1.9999 h -4.98108 v 1.9999 h -5.0011 v -1.9999 H 40.2982 v 1.9999 h -5.00108 v -1.9999 h -4.98108 v 1.9999 h -5.00108 v -1.9999 h -4.9811 v 1.9999 h -5.00108 v -1.9999 H 10.3517 v 1.9999 H 5.35047 v -1.9999 H 0.3696 v 1.9999 h -5.00098 v -1.9999 h -4.98123 v 1.9999 h -5.00098 v -1.9999 h -4.98122 v 1.9999 h -5.00098 v -1.9999 h -4.98123 v 1.9999 H -34.578 v -1.9999 h -4.98122 v 1.9999 h -5.00098 v -1.9999 h -4.98122 v 1.9999 h -5.00098 v -1.9999 h -4.98122 v 1.9999 h -5.00098 v -1.9999 h -4.98087 v 1.9999 h -5.00133 v -1.9999 h -4.98087 v 1.9999 H -84.489 v -1.9999 h -4.98087 v 1.9999 h -5.00133 v -1.9999 h -4.98087 v 1.9999 h -5.00098 v -1.9999 h -4.98122 v 1.9999 h -5.00098 v -1.9999 h -4.98122 v 1.9999 h -5.00098 v -1.9999 h -4.98122 v 1.9999 h -5.00098 v -1.9999 h -4.98122 v 1.9999 h -5.00098 v -1.9999 h -4.98122 v 1.9999 h -5.00098 v -1.9999 h -4.98086 v 1.9999 h -5.00134 v -1.9999 h -4.98086 v 1.9999 h -5.00133 v -1.9999 h -4.98087 v 1.9999 h -5.00133 v -1.9999 h -4.98087 v 1.9999 h -5.00098 v -1.9999 h -4.98122 v 1.9999 h -5.00098 v -1.9999 h -4.98122 v 1.9999 h -5.00098 v -1.9999 h -4.98122 v 1.9999 h -5.00098 v -1.9999 h -4.98122 v 1.9999 h -5.00098 v -1.9999 h -2.98591 v -2.885 h -2.00025 v -4.9001 h 2.00025 v -4.88 h -2.00025 v -4.8998 h 2.00025 v -4.8803 h -2.00025 v -4.8998 h 2.00025 v -4.88 h -2.00025 v -4.9001 h 2.00025 z" />
      <g
         id="g1700">
        <g
           id="g1646">
          <rect
             ry="0.99936813"
             y="147.25706"
             x="-226.96603"
             height="12.22389"
             width="8.7242718"
             id="rect6372"
             style="fill:none;fill-opacity:1;stroke:#000000;stroke-width:0.27272853;stroke-miterlimit:10;stroke-dasharray:none;stroke-dashoffset:0;stroke-opacity:1" />
          <rect
             ry="0.99927735"
             y="147.29861"
             x="-208.22449"
             height="12.140866"
             width="10.84122"
             id="rect6372-7"
             style="fill:none;fill-opacity:1;stroke:#000000;stroke-width:0.27378047;stroke-miterlimit:10;stroke-dasharray:none;stroke-dashoffset:0;stroke-opacity:1" />
        </g>
        <g
           id="g1650">
          <rect
             ry="0.99936813"
             y="147.25706"
             x="-162.67197"
             height="12.22389"
             width="8.7242718"
             id="rect6372-2"
             style="fill:none;fill-opacity:1;stroke:#000000;stroke-width:0.27272853;stroke-miterlimit:10;stroke-dasharray:none;stroke-dashoffset:0;stroke-opacity:1" />
          <rect
             ry="0.99927735"
             y="147.29861"
             x="-143.93045"
             height="12.140866"
             width="10.84122"
             id="rect6372-7-0"
             style="fill:none;fill-opacity:1;stroke:#000000;stroke-width:0.27378047;stroke-miterlimit:10;stroke-dasharray:none;stroke-dashoffset:0;stroke-opacity:1" />
        </g>
        <g
           id="g1654">
          <rect
             ry="0.99936813"
             y="147.25706"
             x="-98.377937"
             height="12.22389"
             width="8.7242718"
             id="rect6372-3"
             style="fill:none;fill-opacity:1;stroke:#000000;stroke-width:0.27272853;stroke-miterlimit:10;stroke-dasharray:none;stroke-dashoffset:0;stroke-opacity:1" />
          <rect
             ry="0.99927735"
             y="147.29861"
             x="-79.636421"
             height="12.140866"
             width="10.84122"
             id="rect6372-7-7"
             style="fill:none;fill-opacity:1;stroke:#000000;stroke-width:0.27378047;stroke-miterlimit:10;stroke-dasharray:none;stroke-dashoffset:0;stroke-opacity:1" />
        </g>
        <g
           id="g1658">
          <rect
             ry="0.99936813"
             y="147.25706"
             x="-34.083862"
             height="12.22389"
             width="8.7242718"
             id="rect6372-9"
             style="fill:none;fill-opacity:1;stroke:#000000;stroke-width:0.27272853;stroke-miterlimit:10;stroke-dasharray:none;stroke-dashoffset:0;stroke-opacity:1" />
          <rect
             ry="0.99927735"
             y="147.29861"
             x="-15.342349"
             height="12.140866"
             width="10.84122"
             id="rect6372-7-2"
             style="fill:none;fill-opacity:1;stroke:#000000;stroke-width:0.27378047;stroke-miterlimit:10;stroke-dasharray:none;stroke-dashoffset:0;stroke-opacity:1" />
        </g>
        <g
           id="g1662">
          <rect
             ry="0.99936813"
             y="147.25706"
             x="30.210144"
             height="12.22389"
             width="8.7242718"
             id="rect6372-97"
             style="fill:none;fill-opacity:1;stroke:#000000;stroke-width:0.27272853;stroke-miterlimit:10;stroke-dasharray:none;stroke-dashoffset:0;stroke-opacity:1" />
          <rect
             ry="0.99927735"
             y="147.29861"
             x="48.951687"
             height="12.140866"
             width="10.84122"
             id="rect6372-7-3"
             style="fill:none;fill-opacity:1;stroke:#000000;stroke-width:0.27378047;stroke-miterlimit:10;stroke-dasharray:none;stroke-dashoffset:0;stroke-opacity:1" />
        </g>
        <g
           id="g1666">
          <rect
             ry="0.99936813"
             y="147.25706"
             x="94.504189"
             height="12.22389"
             width="8.7242718"
             id="rect6372-1"
             style="fill:none;fill-opacity:1;stroke:#000000;stroke-width:0.27272853;stroke-miterlimit:10;stroke-dasharray:none;stroke-dashoffset:0;stroke-opacity:1" />
          <rect
             ry="0.99927735"
             y="147.29861"
             x="113.24572"
             height="12.140866"
             width="10.84122"
             id="rect6372-7-29"
             style="fill:none;fill-opacity:1;stroke:#000000;stroke-width:0.27378047;stroke-miterlimit:10;stroke-dasharray:none;stroke-dashoffset:0;stroke-opacity:1" />
        </g>
        <g
           id="g1670">
          <rect
             ry="0.99936813"
             y="147.25706"
             x="158.79825"
             height="12.22389"
             width="8.7242718"
             id="rect6372-19"
             style="fill:none;fill-opacity:1;stroke:#000000;stroke-width:0.27272853;stroke-miterlimit:10;stroke-dasharray:none;stroke-dashoffset:0;stroke-opacity:1" />
          <rect
             ry="0.99927735"
             y="147.29861"
             x="177.53978"
             height="12.140866"
             width="10.84122"
             id="rect6372-7-4"
             style="fill:none;fill-opacity:1;stroke:#000000;stroke-width:0.27378047;stroke-miterlimit:10;stroke-dasharray:none;stroke-dashoffset:0;stroke-opacity:1" />
        </g>
        <g
           id="g1674">
          <rect
             ry="0.99936813"
             y="147.25706"
             x="223.09229"
             height="12.22389"
             width="8.7242718"
             id="rect6372-8"
             style="fill:none;fill-opacity:1;stroke:#000000;stroke-width:0.27272853;stroke-miterlimit:10;stroke-dasharray:none;stroke-dashoffset:0;stroke-opacity:1" />
          <rect
             ry="0.99927735"
             y="147.29861"
             x="241.83382"
             height="12.140866"
             width="10.84122"
             id="rect6372-7-45"
             style="fill:none;fill-opacity:1;stroke:#000000;stroke-width:0.27378047;stroke-miterlimit:10;stroke-dasharray:none;stroke-dashoffset:0;stroke-opacity:1" />
        </g>
      </g>
    </g>
  </g>
</svg>
